PathFileType	4	(X/Y/Z)	C:/Users/opensim2020/Desktop/walking_exp_matlab/subject01_walking05_straight_02.trc																																																																																																																															
DataRate	CameraRate	NumFrames	NumMarkers	Units	OrigDataRate	OrigDataStartFrame	OrigNumFrames																																																																																																																											
100	100	4	43	mm	100	1501	205																																																																																																																											
Frame#	Time	LFHD			RFHD			LBHD			RBHD			C7			T10			CLAV			STRN			RBAK			LSHO			LUPA			LELB			LFRM			LWRA			LWRB			LFIN			RSHO			RUPA			RELB			RFRM			RWRA			RWRB			RFIN			LASI			RASI			LPSI			RPSI			LTHI			LKNE			LTIB			LANK			LHEE			LTOE			RTHI			RKNE			RTIB			RANK			RHEE			RTOE			*39			*40			*41			*42		
		X1	Y1	Z1	X2	Y2	Z2	X3	Y3	Z3	X4	Y4	Z4	X5	Y5	Z5	X6	Y6	Z6	X7	Y7	Z7	X8	Y8	Z8	X9	Y9	Z9	X10	Y10	Z10	X11	Y11	Z11	X12	Y12	Z12	X13	Y13	Z13	X14	Y14	Z14	X15	Y15	Z15	X16	Y16	Z16	X17	Y17	Z17	X18	Y18	Z18	X19	Y19	Z19	X20	Y20	Z20	X21	Y21	Z21	X22	Y22	Z22	X23	Y23	Z23	X24	Y24	Z24	X25	Y25	Z25	X26	Y26	Z26	X27	Y27	Z27	X28	Y28	Z28	X29	Y29	Z29	X30	Y30	Z30	X31	Y31	Z31	X32	Y32	Z32	X33	Y33	Z33	X34	Y34	Z34	X35	Y35	Z35	X36	Y36	Z36	X37	Y37	Z37	X38	Y38	Z38	X39	Y39	Z39	X40	Y40	Z40	X41	Y41	Z41	X42	Y42	Z42	X43	Y43	Z43
																																																																																																																																		
26	0.25	-854.72375	1680.89343	-1543.01831	-838.9234	1691.51074	-1430.51746	-962.15253	1618.52417	-1529.58948	-949.70996	1628.30591	-1410.6521	-986.17682	1441.60193	-1482.06165	-1025.62842	1150.41956	-1461.69238	-840.72296	1374.30347	-1483.82532	-800.36627	1219.37903	-1483.27356	-1038.46985	1252.97168	-1393.7168	-910.61115	1398.14197	-1642.6925	-933.66986	1215.70654	-1729.27637	-927.55756	1064.72009	-1740.86951	-869.55945	972.34137	-1784.22424	-762.25793	882.94995	-1794.65051	-818.03174	864.0896	-1807.71252	-757.36237	813.97589	-1836.80493	-898.22418	1411.16565	-1330.97095	-967.51147	1219.47791	-1222.2439	-978.40826	1094.58093	-1217.16467	-961.25842	975.97491	-1184.18994	-892.49158	851.55255	-1202.53528	-934.56476	858.27704	-1160.83813	-906.34766	775.98102	-1164.85168	-858.73846	940.61713	-1566.99646	-854.42981	948.65027	-1351.37805	-1043.18103	953.62427	-1507.80933	-1036.86865	954.67487	-1362.50208	-906.1203	608.40881	-1615.98767	-922.67786	474.0986	-1597.71021	-989.27869	294.9624	-1603.89221	-1028.03638	78.29062	-1548.28113	-1071.73303	51.27064	-1492.81995	-880.40295	37.83988	-1554.34143	-813.49268	627.48871	-1279.51538	-768.06427	474.97464	-1301.50378	-865.10583	326.00266	-1304.76025	-946.05688	137.56398	-1356.271	-995.02405	111.68855	-1415.31787	-830.20221	57.88123	-1339.18555	-857.07751	1722.89819	-1453.17273	-1973.14136	1023.30573	3101.7981	-2012.55884	1022.00293	3140.61816	NaN	NaN	NaN
27	0.26	-844.97876	1680.49805	-1542.72327	-829.35175	1690.94897	-1430.29761	-952.578	1618.39343	-1529.62097	-940.25671	1627.9082	-1410.65112	-977.04114	1441.3667	-1482.56982	-1017.02631	1150.24402	-1462.62854	-831.57532	1373.8324	-1483.91602	-791.44788	1218.84839	-1483.58691	-1029.72668	1252.56824	-1394.77368	-900.93054	1398.1897	-1642.9845	-923.31012	1216.18823	-1730.3927	-915.97284	1065.10657	-1742.68359	-856.16425	973.90015	-1786.39771	-746.87952	887.14203	-1797.55005	-802.1853	866.91083	-1810.23181	-740.21716	818.1861	-1839.61072	-889.56232	1410.52783	-1331.16541	-960.29095	1219.0885	-1223.0282	-971.65308	1094.3335	-1218.01318	-955.14227	975.68005	-1184.72095	-886.92761	850.96387	-1202.39917	-929.32349	857.90979	-1161.15967	-901.53363	775.40417	-1164.87402	-850.30206	939.79315	-1567.45837	-845.8158	948.62195	-1352.0603	-1034.84839	953.21429	-1508.01575	-1028.28198	954.31519	-1362.66821	-901.11945	607.84717	-1615.81665	-919.61365	473.8179	-1597.93323	-987.66992	295.24139	-1603.94434	-1027.62341	78.69543	-1548.17871	-1071.25281	51.81173	-1492.48352	-879.60779	37.50796	-1553.77429	-803.35114	628.09113	-1279.93835	-757.58337	475.34341	-1302.63525	-846.88171	321.79916	-1304.82532	-917.59497	129.08316	-1355.59521	-964.98956	100.18259	-1414.41467	-797.37079	56.56167	-1338.19434	-847.34259	1722.39893	-1452.86011	-1973.1311	1023.46777	3101.84375	-2012.54785	1021.94666	3140.61694	NaN	NaN	NaN
28	0.27	-835.26947	1680.09265	-1542.44727	-819.66351	1690.34961	-1430.00793	-942.98352	1618.18774	-1529.53906	-930.84991	1627.54907	-1410.64832	-967.90167	1441.11707	-1483.0199	-1008.31549	1149.97107	-1463.41052	-822.39813	1373.2489	-1483.87659	-782.60339	1218.25403	-1483.92065	-1021.0528	1252.07288	-1395.75781	-891.21301	1398.09863	-1643.1626	-912.99683	1216.47864	-1731.23022	-904.47455	1065.40137	-1744.42639	-842.89758	975.48444	-1788.48706	-731.72235	891.21497	-1800.22681	-786.60541	869.66705	-1812.62036	-723.90436	822.65607	-1842.69238	-881.01947	1409.94031	-1331.35352	-953.00128	1218.46802	-1223.72192	-964.69836	1093.92053	-1218.62939	-948.85803	975.27966	-1185.12683	-881.20673	850.11615	-1202.42236	-923.93073	857.39081	-1161.35327	-896.37903	774.90839	-1164.84875	-841.88885	938.9884	-1567.8418	-837.06067	948.2431	-1352.34265	-1026.4425	952.80603	-1508.11414	-1019.4942	953.75928	-1362.74854	-896.02081	607.53455	-1615.80823	-916.64282	473.69714	-1598.14392	-986.22607	295.62067	-1604.00171	-1027.29651	79.18781	-1548.09448	-1071.11328	52.65386	-1492.40601	-880.3349	37.71745	-1554.49487	-793.6004	628.2677	-1280.41528	-747.07703	475.53311	-1303.30176	-828.7757	317.4733	-1304.52893	-888.58667	120.8307	-1354.68005	-934.55334	89.48313	-1413.56042	-764.05145	55.73954	-1337.21558	-837.64392	1721.76111	-1452.53247	-1973.26172	1023.28107	3101.81689	-2012.56775	1022.02112	3140.7146	NaN	NaN	NaN
29	0.28	-825.51245	1679.59863	-1542.05713	-810.065	1689.5564	-1429.57227	-933.40741	1617.93567	-1529.40979	-921.3197	1627.05164	-1410.48621	-958.66785	1440.70581	-1483.29907	-999.54999	1149.62036	-1463.97937	-813.2511	1372.77625	-1483.94373	-773.55939	1217.55957	-1484.05237	-1012.30035	1251.53687	-1396.58337	-881.51117	1397.94128	-1643.27539	-902.62164	1216.64563	-1731.91772	-893.05231	1065.65479	-1745.98425	-829.73657	976.98376	-1790.39453	-716.84149	895.19293	-1802.68542	-771.25183	872.40601	-1814.92407	-707.604	826.83252	-1845.27185	-872.36804	1409.13708	-1331.45593	-945.49945	1217.83337	-1224.40588	-957.66803	1093.46973	-1219.17346	-942.4743	974.7597	-1185.46472	-875.33905	849.28711	-1202.21411	-918.20343	856.7204	-1161.38745	-891.03851	774.12933	-1164.71436	-833.45343	938.22406	-1568.17896	-828.10681	948.11816	-1352.74707	-1017.92932	952.44739	-1508.19397	-1010.7984	953.28198	-1362.85498	-890.87183	607.32111	-1615.67371	-913.74744	473.59631	-1598.35132	-984.78424	296.16605	-1604.08728	-1026.98926	79.77159	-1548.02441	-1070.84192	53.57943	-1492.29309	-880.06818	37.693	-1554.50708	-784.4837	627.92432	-1280.79846	-737.37012	475.26437	-1304.01819	-810.80975	313.65967	-1304.1593	-858.73181	113.52406	-1353.54358	-902.61646	79.35304	-1411.27527	-730.94769	55.62871	-1335.82043	-827.87634	1721.17786	-1452.03674	-1973.10938	1023.38184	3101.85376	-2012.60767	1021.98096	3140.58545	NaN	NaN	NaN
